Coordinates
version=1
nRows=9
nColumns=63
inDegrees=yes

Units are S.I. units (second, meters, Newtons, ...)
If the header above contains a line with 'inDegrees', this indicates whether rotational values are in degrees (yes) or radians (no).

endheader
time	pelvis_tilt	pelvis_list	pelvis_rotation	pelvis_tx	pelvis_ty	pelvis_tz	hip_flexion_r	hip_adduction_r	hip_rotation_r	knee_angle_r	knee_angle_r_beta	ankle_angle_r	subtalar_angle_r	mtp_angle_r	hip_flexion_l	hip_adduction_l	hip_rotation_l	knee_angle_l	knee_angle_l_beta	ankle_angle_l	subtalar_angle_l	mtp_angle_l	L5_S1_Flex_Ext	L5_S1_Lat_Bending	L5_S1_axial_rotation	L4_L5_Flex_Ext	L4_L5_Lat_Bending	L4_L5_axial_rotation	L3_L4_Flex_Ext	L3_L4_Lat_Bending	L3_L4_axial_rotation	L2_L3_Flex_Ext	L2_L3_Lat_Bending	L2_L3_axial_rotation	L1_L2_Flex_Ext	L1_L2_Lat_Bending	L1_L2_axial_rotation	L1_T12_Flex_Ext	L1_T12_Lat_Bending	L1_T12_axial_rotation	Abs_r3	Abs_r2	Abs_r1	Abs_t1	Abs_t2	neck_flexion	neck_bending	neck_rotation	arm_flex_r	arm_add_r	arm_rot_r	elbow_flex_r	pro_sup_r	wrist_flex_r	wrist_dev_r	arm_flex_l	arm_add_l	arm_rot_l	elbow_flex_l	pro_sup_l	wrist_flex_l	wrist_dev_l
0.909091	-3.569010	-0.642595	99.575223	0.077077	0.527232	0.806448	-0.019458	0.686523	-8.948763	11.532526	0.201281	33.711277	7.830551	0.000000	-0.298667	0.863315	-4.912671	10.537672	0.183917	32.840238	0.721926	0.000000	0.377686	0.149272	-0.556070	0.701401	0.198531	-0.590824	0.620501	0.362939	-0.590824	0.431657	0.362939	-0.486561	0.350719	0.304395	-0.451807	0.215810	0.231222	-0.417052	2.697774	1.688590	-3.092693	0.000000	0.000000	20.197496	-1.271928	15.092423	119.125621	-104.165856	103.483073	12.189618	67.760061	30.431775	-2.828539	-73.513339	-75.084748	-43.023718	14.178784	87.268710	-65.868995	-23.880333
0.927273	-3.537732	-0.688641	99.481812	0.077117	0.527144	0.806553	-0.062019	0.676137	-9.353972	11.452767	0.199888	33.581832	8.502997	0.000000	-0.261159	0.858883	-4.848009	10.531431	0.183808	32.696268	0.377876	0.000000	0.374657	0.168933	-0.394475	0.695775	0.224681	-0.419130	0.615523	0.410743	-0.419130	0.428195	0.410743	-0.345166	0.347906	0.344488	-0.320511	0.214079	0.261677	-0.295856	2.676135	1.911002	-2.193951	0.000000	0.000000	20.525771	-2.008369	15.552653	114.578413	-105.858553	95.197319	13.898529	70.328793	30.453313	-1.578878	-69.121303	-77.262259	-34.500698	10.791850	87.003804	-67.417498	-23.741901
0.945455	-3.489382	-0.727254	99.436372	0.077020	0.527082	0.806672	-0.126113	0.690904	-9.747636	11.320060	0.197572	33.454140	9.089845	0.000000	-0.224267	0.837787	-4.756520	10.520590	0.183619	32.586276	0.105069	0.000000	0.372066	0.189752	-0.240275	0.690964	0.252370	-0.255293	0.611267	0.461363	-0.255293	0.425234	0.461363	-0.210241	0.345500	0.386943	-0.195224	0.212599	0.293926	-0.180206	2.657630	2.146514	-1.336339	0.000000	0.000000	20.800089	-2.739897	15.956649	110.372643	-107.540909	87.144056	15.608323	73.030330	30.367569	-0.556637	-64.435325	-79.282534	-26.844150	7.893409	86.744909	-67.939139	-23.624547
0.963636	-3.427277	-0.764571	99.404354	0.076867	0.527035	0.806775	-0.203076	0.722903	-10.152331	11.134414	0.194332	33.351454	9.669455	0.000000	-0.183021	0.805070	-4.647644	10.506374	0.183371	32.518852	-0.128824	0.000000	0.371813	0.209583	-0.090946	0.690494	0.278746	-0.096630	0.610851	0.509580	-0.096630	0.424945	0.509580	-0.079578	0.345265	0.427382	-0.073894	0.212454	0.324644	-0.068210	2.655823	2.370846	-0.505815	0.000000	0.000000	21.007836	-3.412837	16.115235	106.709317	-109.117418	79.533050	17.189092	75.783818	30.358587	0.210374	-59.553487	-81.076254	-20.357633	5.645846	86.481925	-67.316264	-23.565444
0.981818	-3.401751	-0.785682	99.385161	0.076823	0.527025	0.806868	-0.298445	0.738007	-10.451686	10.927539	0.190722	33.284437	10.097603	0.000000	-0.162679	0.793107	-4.608905	10.483955	0.182980	32.503004	-0.199451	0.000000	0.371333	0.220722	0.047204	0.689602	0.293560	0.050154	0.610062	0.536664	0.050154	0.424396	0.536664	0.041304	0.344819	0.450097	0.038353	0.212179	0.341899	0.035403	2.652391	2.496853	0.262536	0.000000	0.000000	21.107633	-3.960888	16.084982	104.378829	-110.601953	73.368339	18.671758	78.419634	30.319898	0.888743	-55.441776	-82.773876	-14.573777	3.740673	86.222228	-67.706572	-23.524993
1.000000	-3.405789	-0.787752	99.403194	0.076807	0.527060	0.806950	-0.409646	0.739249	-10.663165	10.711092	0.186944	33.257066	10.380873	0.000000	-0.164427	0.799242	-4.594888	10.451493	0.182413	32.533974	-0.131815	0.000000	0.370147	0.225009	0.173324	0.687399	0.299262	0.184157	0.608114	0.547086	0.184157	0.423041	0.547086	0.151658	0.343718	0.458838	0.140826	0.211502	0.348539	0.129993	2.643921	2.545345	0.963976	0.000000	0.000000	21.111881	-4.398666	15.841314	102.793889	-111.968810	68.423488	20.037742	80.758363	30.289140	1.372145	-51.927386	-84.336683	-9.955868	2.287016	85.945583	-68.306520	-23.495260
1.018182	-3.425714	-0.783619	99.421407	0.076829	0.527114	0.806992	-0.507425	0.730816	-10.786506	10.512661	0.183481	33.278932	10.568143	0.000000	-0.175337	0.816589	-4.604114	10.412085	0.181725	32.604414	0.012961	0.000000	0.369971	0.224243	0.276828	0.687073	0.298244	0.294130	0.607825	0.545226	0.294130	0.422840	0.545226	0.242225	0.343555	0.457277	0.224923	0.211401	0.347353	0.207621	2.642665	2.536687	1.539636	0.000000	0.000000	21.049509	-4.702260	15.478309	102.234251	-113.089173	65.027509	21.270049	82.858817	30.138472	1.739091	-48.898245	-85.498349	-6.950187	1.485364	85.812301	-68.393321	-23.492676
1.036364	-3.469726	-0.775800	99.459652	0.076917	0.527188	0.807001	-0.592503	0.717594	-10.737612	10.326567	0.180233	33.321396	10.520050	0.000000	-0.191498	0.842317	-4.707341	10.373444	0.181051	32.714799	0.342983	0.000000	0.370686	0.216333	0.345012	0.688402	0.287723	0.366575	0.609001	0.525992	0.366575	0.423657	0.525992	0.301885	0.344219	0.441147	0.280322	0.211810	0.335100	0.258759	2.647775	2.447204	1.918853	0.000000	0.000000	20.932542	-4.822417	14.982099	102.846657	-113.887513	63.530529	22.240508	84.604922	29.865416	1.846415	-46.626134	-86.193251	-5.501311	1.278405	85.779090	-68.107275	-23.510173
1.054545	-3.509953	-0.763818	99.475327	0.077049	0.527271	0.806964	-0.649800	0.723784	-10.469173	10.171913	0.177533	33.376728	10.227228	0.000000	-0.217915	0.853522	-4.928592	10.327242	0.180244	32.865382	0.828424	0.000000	0.371789	0.206820	0.379510	0.690449	0.275071	0.403229	0.610812	0.502862	0.403229	0.424918	0.502862	0.332071	0.345243	0.421747	0.308352	0.212440	0.320364	0.284632	2.655651	2.339589	2.110719	0.000000	0.000000	20.794981	-4.768225	14.521003	104.740598	-114.328370	64.111359	22.964754	85.936841	29.450937	1.776928	-45.097053	-86.336982	-5.443670	1.683311	85.830067	-67.412623	-23.537779
